<?xml version="1.0" encoding="UTF-8" standalone="no"?>
<svg width="24px" height="19px" viewBox="0 0 24 19" version="1.1" xmlns="http://www.w3.org/2000/svg" xmlns:xlink="http://www.w3.org/1999/xlink" xmlns:sketch="http://www.bohemiancoding.com/sketch/ns">
    <!-- Generator: Sketch 3.5.1 (25234) - http://www.bohemiancoding.com/sketch -->
    <title>Export + Shape Copy</title>
    <desc>Created with Sketch.</desc>
    <defs></defs>
    <g id="Page-1" stroke="none" stroke-width="1" fill="none" fill-rule="evenodd" sketch:type="MSPage">
        <g id="Export-+-Shape-Copy" sketch:type="MSLayerGroup" fill="#4F585F">
            <path d="M7.0105139,3.75492131 L11.4575539,-0.403752275 L11.4575539,13.5774347 C11.4575539,13.8081745 11.6572964,13.9946237 11.9032509,13.9946237 C12.1495872,13.9946237 12.3493298,13.8081745 12.3493298,13.5774347 L12.3493298,-0.403037911 L16.7963698,3.75599286 C16.8842106,3.83778761 16.997258,3.87779203 17.1125969,3.87779203 C17.2256443,3.87779203 17.3409832,3.83707324 17.4276783,3.75599286 C17.6018324,3.59347491 17.6018324,3.32916 17.4276783,3.16592769 L12.2202419,-1.70461023 C12.2202419,-1.70461023 12.2202419,-1.70461023 12.2190961,-1.7053246 L11.9043966,-2 L11.5893152,-1.7053246 C11.5893152,-1.7053246 11.5893152,-1.7053246 11.5885514,-1.70461023 L6.38073299,3.16592769 C6.20619699,3.32916 6.20619699,3.59347491 6.38073299,3.75599286 C6.55450517,3.91851081 6.83559598,3.91743926 7.0105139,3.75492131 Z M15.1383309,5.63037634 L15.1383309,6.49705633 L20.0247251,6.49705633 L20.0247251,20.75832 L3.97527485,20.75832 L3.97527485,6.49705633 L8.86041657,6.49705633 L8.86041657,5.63037634 L3,5.63037634 L3,21.625 L21,21.625 L21,5.63037634 L15.1383309,5.63037634 Z" id="Shape-Copy" sketch:type="MSShapeGroup" transform="translate(12.000000, 9.812500) rotate(-270.000000) translate(-12.000000, -9.812500) "></path>
        </g>
    </g>
</svg>