<?xml version="1.0" encoding="UTF-8"?>
<svg width="216px" height="197px" viewBox="0 0 216 197" version="1.1" xmlns="http://www.w3.org/2000/svg" xmlns:xlink="http://www.w3.org/1999/xlink">
    <title>62EB1000-3E80-47E6-B325-5936414029EA</title>
    <defs>
        <circle id="path-1" cx="44" cy="44" r="44"></circle>
    </defs>
    <g id="ECAF" stroke="none" stroke-width="1" fill="none" fill-rule="evenodd">
        <g id="1.-Commonwealth-Assistance---Default" transform="translate(-613.000000, -339.000000)">
            <g id="Medium/NoActivities" transform="translate(613.000000, 339.000000)">
                <g id="Group-14">
                    <g id="tabla" transform="translate(82.000000, 97.000000) rotate(-11.000000) translate(-82.000000, -97.000000) translate(15.000000, 12.000000)">
                        <path d="M5.05150446,170 C2.26163558,170 -2.27373675e-13,167.729051 -2.27373675e-13,164.927692 L-2.27373675e-13,18.0723076 C-2.27373675e-13,15.2709495 2.26163558,13 5.05150446,13 L128.948496,13 C131.738364,13 134,15.2709495 134,18.0723076 L134,164.927692 C134,167.644161 131.873356,169.86188 129.200617,169.993792 L128.948496,170 L5.05150446,170 Z" id="Path" fill="#5353D1" fill-rule="nonzero"></path>
                        <path d="M6.42542586,167 C4.5336154,167 3,165.486367 3,163.619206 L3,19.2538629 C3,18.0090888 4.02241026,17 5.28361724,17 L127.574574,17 C129.466385,17 131,18.5136332 131,20.3807944 L131,164.746137 C131,165.990911 129.97759,167 128.716383,167 L6.42542586,167 Z" id="Path" fill="#FFFFFF"></path>
                        <path d="M12.1042922,162 C10.389839,162 9,160.597367 9,158.867131 L9,25.0885797 C9,23.935089 9.9265593,23 11.0695281,23 L121.895708,23 C123.610161,23 125,24.4026334 125,26.1328695 L125,159.91142 C125,161.064911 124.073441,162 122.930472,162 L12.1042922,162 Z" id="Path" fill="#5353D1"></path>
                        <path d="M12.1042922,162 C10.389839,162 9,160.597367 9,158.867131 L9,25.0885797 C9,23.935089 9.9265593,23 11.0695281,23 L121.895708,23 C123.610161,23 125,24.4026334 125,26.1328695 L125,159.91142 C125,161.064911 124.073441,162 122.930472,162 L12.1042922,162 Z" id="Path" fill-opacity="0.92" fill="#FFFFFF"></path>
                        <path d="M20.6493528,152 C19.1861557,152 18,150.768912 18,149.250287 L18,31.8331419 C18,30.8207256 18.7907704,30 19.7662352,30 L114.350647,30 C115.813844,30 117,31.2310884 117,32.7497128 L117,150.166858 C117,151.179274 116.20923,152 115.233765,152 L20.6493528,152 Z" id="Path" stroke="#5353D1" stroke-width="2" stroke-linejoin="round" stroke-dasharray="6,5"></path>
                        <path d="M41.6,36 C39.6117749,36 38,34.3882251 38,32.4 L38,16.8 C38,14.8117749 39.6117749,13.2 41.6,13.2 L53.6492356,13.2006418 C54.2587112,5.80889959 60.450985,0 68,0 C75.549015,0 81.7412888,5.80889959 82.3507644,13.2006418 L94.4,13.2 C96.3882251,13.2 98,14.8117749 98,16.8 L98,32.4 C98,34.3882251 96.3882251,36 94.4,36 L41.6,36 Z" id="Path" fill="#5353D1"></path>
                        <circle id="Oval" fill-opacity="0.92" fill="#FFFFFF" cx="67.5" cy="13.5" r="3.5"></circle>
                    </g>
                    <g id="reloj" transform="translate(128.000000, 109.000000)">
                        <g id="Oval" fill="#5353D1">
                            <use xlink:href="#path-1"></use>
                            <use fill-opacity="0.2" xlink:href="#path-1"></use>
                        </g>
                        <circle id="Oval" fill-opacity="0.96" fill="#FFFFFF" cx="44" cy="44" r="35.4146341"></circle>
                        <g id="Group-13" transform="translate(25.000000, 23.500000)" stroke="#5353D1" stroke-linecap="round" stroke-width="7">
                            <line x1="18.5" y1="40" x2="18.5" y2="1" id="Line-3"></line>
                            <line x1="0.393617021" y1="20.5" x2="37.5" y2="20" id="Line-3"></line>
                        </g>
                    </g>
                </g>
            </g>
        </g>
    </g>
</svg>