<?xml version="1.0" encoding="UTF-8"?>
<svg width="14px" height="14px" viewBox="0 0 14 14" version="1.1" xmlns="http://www.w3.org/2000/svg" xmlns:xlink="http://www.w3.org/1999/xlink">
    <title>7CF6838B-AE1A-44B8-994C-87D6C0E4AD30</title>
    <defs>
        <path d="M13.625,6.125 L7.875,6.125 L7.875,0.375 C7.875,0.16875 7.70625,0 7.5,0 L6.5,0 C6.29375,0 6.125,0.16875 6.125,0.375 L6.125,6.125 L0.375,6.125 C0.16875,6.125 0,6.29375 0,6.5 L0,7.5 C0,7.70625 0.16875,7.875 0.375,7.875 L6.125,7.875 L6.125,13.625 C6.125,13.83125 6.29375,14 6.5,14 L7.5,14 C7.70625,14 7.875,13.83125 7.875,13.625 L7.875,7.875 L13.625,7.875 C13.83125,7.875 14,7.70625 14,7.5 L14,6.5 C14,6.29375 13.83125,6.125 13.625,6.125 Z" id="path-1"></path>
    </defs>
    <g id="GRDS" stroke="none" stroke-width="1" fill="none" fill-rule="evenodd">
        <g id="11.-Order" transform="translate(-1244.000000, -374.000000)">
            <g id="Group-4" transform="translate(82.000000, 349.000000)">
                <g id="Left-Icon" transform="translate(1162.000000, 25.000000)">
                    <mask id="mask-2" fill="white">
                        <use xlink:href="#path-1"></use>
                    </mask>
                    <use id="1---Main-Use/add" fill="#026BC8" xlink:href="#path-1"></use>
                </g>
            </g>
        </g>
    </g>
</svg>