<svg xmlns="http://www.w3.org/2000/svg" xmlns:xlink="http://www.w3.org/1999/xlink" width="16" height="16" viewBox="0 0 16 16">
    <defs>
        <path id="a" d="M13 6V2.56a.75.75 0 0 0-.219-.532L10.97.218A.75.75 0 0 0 10.438 0H3.75A.748.748 0 0 0 3 .75V6a3 3 0 0 0-3 3v4.25c0 .416.334.75.75.75H3v1.25c0 .416.334.75.75.75h8.5c.416 0 .75-.334.75-.75V14h2.25c.416 0 .75-.334.75-.75V9a3 3 0 0 0-3-3zM4.5 1.5h5.628L11.5 2.872V7.5h-7v-6zm7 13h-7V12h7v2.5zm3-2H13v-1.25a.752.752 0 0 0-.75-.75h-8.5a.752.752 0 0 0-.75.75v1.25H1.5V9A1.5 1.5 0 0 1 3 7.5v.75c0 .412.337.75.75.75h8.5c.412 0 .75-.338.75-.75V7.5A1.5 1.5 0 0 1 14.5 9v3.5zm-.25-3c0 .416-.334.75-.75.75a.748.748 0 0 1-.75-.75c0-.416.334-.75.75-.75s.75.334.75.75z"/>
    </defs>
    <use fill="#5B5E65" fill-rule="nonzero" xlink:href="#a"/>
</svg>
