<?xml version="1.0" encoding="UTF-8" standalone="no"?>
<svg width="23px" height="24px" viewBox="0 0 23 24" version="1.1" xmlns="http://www.w3.org/2000/svg" xmlns:xlink="http://www.w3.org/1999/xlink">
    <!-- Generator: Sketch 3.6 (26304) - http://www.bohemiancoding.com/sketch -->
    <title>Print 2</title>
    <desc>Created with Sketch.</desc>
    <defs></defs>
    <g id="Page-1" stroke="none" stroke-width="1" fill="none" fill-rule="evenodd">
        <g id="Print-2" transform="translate(0.786325, 0.000000)" fill="#4F585F">
            <path d="M18.6034559,4.73201099 L18.1236035,4.73201099 L18.1236035,0.546077013 C18.1236035,0.244529591 17.8700902,0 17.5574156,0 L4.44287608,0 C4.13000707,0 3.87673679,0.244529591 3.87673679,0.546077013 L3.87673679,4.7319641 L3.39659272,4.7319641 C1.52389959,4.7319641 0,6.20167369 0,8.00819172 L0,14.7724007 C0,16.5789656 1.52389959,18.0485814 3.39659272,18.0485814 L3.87673679,18.0485814 L3.87673679,22.3070068 C3.87673679,22.6086011 4.13000707,22.8530838 4.44287608,22.8530838 L17.5574156,22.8530838 C17.8700902,22.8530838 18.1235549,22.6085542 18.1235549,22.3070068 L18.1235549,18.0485814 L18.6034073,18.0485814 C20.4761004,18.0485814 22,16.5789656 22,14.7724007 L22,8.00823861 C22.0000486,6.20167369 20.476149,4.73201099 18.6034559,4.73201099 L18.6034559,4.73201099 Z M5.00896677,0.96 L16.9913735,0.96 L16.9913735,4.8 L5.00896677,4.8 L5.00896677,0.96 L5.00896677,0.96 Z M16.9913735,24 L5.00896677,24 L5.00896677,15.4697526 L16.9913735,15.4697526 L16.9913735,24 L16.9913735,24 Z M20.8679159,14.5219554 C20.8679159,15.7013302 19.8521124,16.6606426 18.6034559,16.6606426 L18.1236035,16.6606426 L18.1236035,14.7707596 L19.3479539,14.7707596 C19.6608229,14.7707596 19.9140445,14.5313677 19.9140445,14.2360533 C19.9140445,13.9408309 19.6608229,13.701393 19.3479539,13.701393 L17.5574642,13.701393 L4.44287608,13.701393 L2.82005038,13.701393 C2.50742443,13.701393 2.25391108,13.9408309 2.25391108,14.2360533 C2.25391108,14.5314136 2.50742443,14.7707596 2.82005038,14.7707596 L3.87673679,14.7707596 L3.87673679,16.6606426 L3.39659272,16.6606426 C2.1479848,16.6606426 1.13218137,15.7012384 1.13218137,14.5219554 L1.13218137,7.89864127 C1.13218137,6.71935829 2.1479848,5.76 3.39659272,5.76 L4.44282747,5.76 L17.5573184,5.76 L18.6034559,5.76 C19.8520152,5.76 20.8678186,6.71940421 20.8678186,7.89864127 L20.8678186,14.5219554 L20.8679159,14.5219554 Z M6.3297154,18.5366687 L15.6703818,18.5366687 C15.9830564,18.5366687 16.2365211,18.2799655 16.2365211,17.963186 C16.2365211,17.6465542 15.9830078,17.3897526 15.6703818,17.3897526 L6.3297154,17.3897526 C6.01708945,17.3897526 5.7635761,17.6465542 5.7635761,17.963186 C5.7635761,18.2799655 6.01708945,18.5366687 6.3297154,18.5366687 Z M6.3297154,20.6635676 L15.6703818,20.6635676 C15.9830564,20.6635676 16.2365211,20.4066675 16.2365211,20.0900849 C16.2365211,19.7733547 15.9830078,19.5166515 15.6703818,19.5166515 L6.3297154,19.5166515 C6.01708945,19.5166515 5.7635761,19.7733547 5.7635761,20.0900849 C5.7635761,20.4068152 6.01708945,20.6635676 6.3297154,20.6635676 Z" id="Shape"></path>
            <ellipse id="Oval-79" cx="5.26086957" cy="8.16" rx="1.43478261" ry="1.44"></ellipse>
        </g>
    </g>
</svg>