<svg xmlns="http://www.w3.org/2000/svg" xmlns:xlink="http://www.w3.org/1999/xlink" width="16" height="16" viewBox="0 0 16 16">
    <defs>
        <path id="a" d="M174 0a8.001 8.001 0 0 0 0 16 8 8 0 1 0 0-16zm0 14.452A6.448 6.448 0 0 1 167.548 8 6.45 6.45 0 0 1 174 1.548 6.45 6.45 0 0 1 180.452 8 6.448 6.448 0 0 1 174 14.452zm3.46-8.233c0 2.163-2.337 2.197-2.337 2.996v.204a.387.387 0 0 1-.387.387h-1.472a.387.387 0 0 1-.387-.387V9.14c0-1.153.874-1.614 1.534-1.984.567-.318.914-.534.914-.955 0-.556-.71-.925-1.283-.925-.748 0-1.094.354-1.579.967a.387.387 0 0 1-.538.068l-.897-.68a.388.388 0 0 1-.085-.528c.762-1.12 1.732-1.748 3.244-1.748 1.583 0 3.272 1.235 3.272 2.864zm-2.105 5.394c0 .747-.608 1.355-1.355 1.355a1.356 1.356 0 0 1-1.355-1.355c0-.747.608-1.355 1.355-1.355s1.355.608 1.355 1.355z"/>
    </defs>
    <use fill="#026BC8" fill-rule="nonzero" transform="translate(-166)" xlink:href="#a"/>
</svg>
