<svg xmlns="http://www.w3.org/2000/svg" xmlns:xlink="http://www.w3.org/1999/xlink" width="28" height="28" viewBox="0 0 28 28">
    <defs>
        <path id="a" d="M14 .438C6.51.438.437 6.51.437 14 .438 21.49 6.51 27.563 14 27.563S27.563 21.49 27.563 14 21.49.437 14 .437zm0 2.624A10.932 10.932 0 0 1 24.938 14 10.932 10.932 0 0 1 14 24.938 10.932 10.932 0 0 1 3.062 14 10.932 10.932 0 0 1 14 3.062zm7.667 7.124l-1.232-1.242a.656.656 0 0 0-.928-.004l-7.73 7.668-3.27-3.296a.656.656 0 0 0-.928-.004l-1.243 1.233a.656.656 0 0 0-.003.928l4.964 5.005c.255.257.671.259.928.003l9.439-9.362a.656.656 0 0 0 .003-.929z"/>
    </defs>
    <use fill="#00804D" fill-rule="nonzero" xlink:href="#a"/>
</svg>
