<?xml version="1.0" encoding="UTF-8"?>
<svg width="16px" height="18px" viewBox="0 0 16 18" version="1.1" xmlns="http://www.w3.org/2000/svg" xmlns:xlink="http://www.w3.org/1999/xlink">
    <!-- Generator: Sketch 55.1 (78136) - https://sketchapp.com -->
    <title>Icon</title>
    <desc>Created with Sketch.</desc>
    <defs>
        <path d="M7.875,6.609375 L7.875,14.203125 C7.875,14.4361055 7.68610547,14.625 7.453125,14.625 L6.609375,14.625 C6.37639453,14.625 6.1875,14.4361055 6.1875,14.203125 L6.1875,6.609375 C6.1875,6.37639453 6.37639453,6.1875 6.609375,6.1875 L7.453125,6.1875 C7.68610547,6.1875 7.875,6.37639453 7.875,6.609375 Z M11.390625,6.1875 L10.546875,6.1875 C10.3138945,6.1875 10.125,6.37639453 10.125,6.609375 L10.125,14.203125 C10.125,14.4361055 10.3138945,14.625 10.546875,14.625 L11.390625,14.625 C11.6236055,14.625 11.8125,14.4361055 11.8125,14.203125 L11.8125,6.609375 C11.8125,6.37639453 11.6236055,6.1875 11.390625,6.1875 Z M16.03125,2.8125 C16.4972461,2.8125 16.875,3.19025391 16.875,3.65625 L16.875,4.078125 C16.875,4.31110547 16.6861055,4.5 16.453125,4.5 L15.75,4.5 L15.75,16.3125 C15.75,17.2444922 14.9944922,18 14.0625,18 L3.9375,18 C3.00550781,18 2.25,17.2444922 2.25,16.3125 L2.25,4.5 L1.546875,4.5 C1.31389453,4.5 1.125,4.31110547 1.125,4.078125 L1.125,3.65625 C1.125,3.19025391 1.50275391,2.8125 1.96875,2.8125 L4.58476172,2.8125 L5.78070703,0.81928125 C6.08568147,0.310996219 6.63497941,0 7.22773828,0 L10.7722969,0 C11.3650557,0 11.9143537,0.310996219 12.2193281,0.81928125 L13.4152383,2.8125 L16.03125,2.8125 Z M6.55273828,2.8125 L11.4472969,2.8125 L10.83375,1.78991016 C10.7956282,1.72637453 10.726966,1.6875 10.6528711,1.6875 L7.34719922,1.6875 C7.27310436,1.6875 7.20444212,1.72637453 7.16632031,1.78991016 L6.55273828,2.8125 Z M14.0625,4.5 L3.9375,4.5 L3.9375,16.1015625 C3.9375,16.2180601 4.03193994,16.3125 4.1484375,16.3125 L13.8515625,16.3125 C13.9680601,16.3125 14.0625,16.2180601 14.0625,16.1015625 L14.0625,4.5 Z" id="path-1"></path>
    </defs>
    <g id="Page-1" stroke="none" stroke-width="1" fill="none" fill-rule="evenodd">
        <g id="Renegotiation-Summary-with-Status" transform="translate(-995.000000, -357.000000)">
            <g id="Group-5" transform="translate(162.000000, 294.000000)">
                <g id="Table-[0v]">
                    <g id="Cell-Row-[0h]" transform="translate(0.000000, 48.000000)">
                        <g id="1---Main-Use/trash" transform="translate(832.000000, 15.000000)">
                            <mask id="mask-2" fill="white">
                                <use xlink:href="#path-1"></use>
                            </mask>
                            <use fill="#5B5E65" fill-rule="nonzero" xlink:href="#path-1"></use>
                            <g id="5---⚙️Color/2-Nuetral/neutral-500" mask="url(#mask-2)"></g>
                        </g>
                    </g>
                </g>
            </g>
        </g>
    </g>
</svg>