<svg xmlns="http://www.w3.org/2000/svg" xmlns:xlink="http://www.w3.org/1999/xlink" width="28" height="28" viewBox="0 0 28 28">
    <defs>
        <path id="a" d="M14 .438C6.51.438.437 6.511.437 14 .438 21.492 6.51 27.563 14 27.563S27.563 21.492 27.563 14C27.563 6.512 21.49.437 14 .437zm0 24.5A10.931 10.931 0 0 1 3.062 14C3.063 7.957 7.955 3.062 14 3.062c6.042 0 10.938 4.893 10.938 10.938 0 6.045-4.891 10.938-10.938 10.938zm0-18.485a2.297 2.297 0 1 1 0 4.594 2.297 2.297 0 0 1 0-4.594zm3.063 13.89a.656.656 0 0 1-.657.657h-4.812a.656.656 0 0 1-.656-.656V19.03c0-.362.293-.656.656-.656h.656v-3.5h-.656a.656.656 0 0 1-.656-.656v-1.313c0-.362.293-.656.656-.656h3.5c.362 0 .656.294.656.656v5.469h.656c.363 0 .657.294.657.656v1.313z"/>
    </defs>
    <use fill="#2874BB" fill-rule="nonzero" xlink:href="#a"/>
</svg>
