<svg xmlns="http://www.w3.org/2000/svg" xmlns:xlink="http://www.w3.org/1999/xlink" width="28" height="28" viewBox="0 0 28 28">
    <defs>
        <path id="a" d="M14 .438C6.51.438.437 6.511.437 14 .438 21.492 6.51 27.563 14 27.563S27.563 21.492 27.563 14C27.563 6.512 21.49.437 14 .437zm0 24.5A10.931 10.931 0 0 1 3.062 14C3.063 7.957 7.955 3.062 14 3.062c6.042 0 10.938 4.893 10.938 10.938 0 6.045-4.891 10.938-10.938 10.938zm5.865-13.957c0 3.667-3.96 3.724-3.96 5.079v.346a.656.656 0 0 1-.657.657h-2.496a.656.656 0 0 1-.656-.657v-.473c0-1.955 1.482-2.737 2.602-3.364.96-.539 1.549-.905 1.549-1.618 0-.943-1.204-1.57-2.176-1.57-1.268 0-1.854.601-2.677 1.64a.657.657 0 0 1-.911.116L8.96 9.983a.658.658 0 0 1-.144-.895c1.292-1.897 2.938-2.963 5.5-2.963 2.683 0 5.548 2.095 5.548 4.856zm-3.568 9.144A2.3 2.3 0 0 1 14 22.422a2.3 2.3 0 0 1-2.297-2.297A2.3 2.3 0 0 1 14 17.828a2.3 2.3 0 0 1 2.297 2.297z"/>
    </defs>
    <use fill="#D42828" fill-rule="nonzero" xlink:href="#a"/>
</svg>
