<svg xmlns="http://www.w3.org/2000/svg" xmlns:xlink="http://www.w3.org/1999/xlink" width="28" height="28" viewBox="0 0 28 28">
    <defs>
        <path id="a" d="M14 .438C6.51.438.437 6.511.437 14 .438 21.492 6.51 27.563 14 27.563S27.563 21.492 27.563 14C27.563 6.512 21.49.437 14 .437zm0 24.5A10.931 10.931 0 0 1 3.062 14C3.063 7.957 7.955 3.062 14 3.062c6.042 0 10.938 4.893 10.938 10.938 0 6.045-4.891 10.938-10.938 10.938zm2.297-5.688A2.3 2.3 0 0 1 14 21.547a2.3 2.3 0 0 1-2.297-2.297A2.3 2.3 0 0 1 14 16.953a2.3 2.3 0 0 1 2.297 2.297zm-4.45-11.561l.372 7.438c.017.349.306.623.655.623h2.252c.35 0 .638-.274.655-.623l.372-7.438A.656.656 0 0 0 15.498 7h-2.996a.656.656 0 0 0-.655.689z"/>
    </defs>
    <use fill="#8A6A00" fill-rule="nonzero" xlink:href="#a"/>
</svg>
